<svg width="50" height="50" viewBox="0 0 50 50" fill="none" xmlns="http://www.w3.org/2000/svg">
<circle cx="25" cy="25" r="25" fill="#AF2655"/>
<path d="M22.3544 44.1006C17.8326 41.5018 13.3158 38.896 8.80388 36.2834C8.03312 35.8367 7.50791 35.2483 7.22827 34.5181C7.07609 34.1178 7 33.3752 7 32.2903C7 27.2823 7.0005 22.2748 7.00148 17.2679C7.00297 15.3646 7.44912 14.5124 9.02917 13.5993C13.4857 11.0232 17.9438 8.44957 22.4033 5.8784C23.2235 5.40606 23.8322 5.13185 24.2295 5.05576C24.9547 4.91742 25.644 5.03649 26.2972 5.41298C31.1411 8.21242 35.9865 11.0099 40.8334 13.8054C41.528 14.2065 42.0083 14.7609 42.2741 15.4684C42.4224 15.8627 42.4969 16.5242 42.4979 17.4531C42.4999 22.7507 42.5004 28.0476 42.4994 33.3441C42.4994 34.976 41.5908 35.7646 40.1649 36.5887C35.5739 39.2439 30.9815 41.8961 26.3876 44.5453C25.6919 44.9475 24.978 45.0828 24.2457 44.9515C23.8495 44.8813 23.219 44.5977 22.3544 44.1006ZM24.6267 24.9221C20.2976 22.4368 15.9532 19.9289 11.5934 17.3983C11.3177 17.2382 11.1102 17.1532 10.9709 17.1434C10.4832 17.1063 10.1557 17.4827 10.1557 17.966C10.1586 22.9809 10.1675 27.9958 10.1823 33.0106C10.1833 33.2942 10.3059 33.5067 10.5499 33.648C14.7703 36.0877 18.9902 38.5274 23.2096 40.9672C23.6588 41.2266 24.0842 41.48 24.4681 41.1451C24.6568 40.98 24.7512 40.8131 24.7512 40.6441C24.7502 35.4454 24.7536 30.2536 24.7615 25.0688C24.7615 25.0274 24.7798 24.9962 24.8164 24.9754C29.2779 22.4004 33.7364 19.8262 38.192 17.2531C38.6841 16.9699 38.7405 16.2363 38.2247 15.9383C34.1209 13.5707 30.0166 11.2031 25.9118 8.83545C25.3411 8.50639 24.7453 8.89029 24.7467 9.51728C24.7497 14.5578 24.7478 19.6705 24.7408 24.8554C24.7408 24.9433 24.7028 24.9656 24.6267 24.9221ZM30.0966 36.1222C30.5584 36.3899 31.1066 36.4981 31.7098 36.4407C32.3131 36.3832 32.9597 36.1612 33.6126 35.7874C34.2656 35.4135 34.9121 34.8952 35.5152 34.2619C36.1185 33.6285 36.6665 32.8926 37.1282 32.0963C37.5899 31.2999 37.9559 30.4587 38.2058 29.6204C38.4555 28.7823 38.5841 27.9636 38.584 27.2112C38.5839 26.4588 38.4553 25.7874 38.2052 25.2354C37.9553 24.6834 37.5891 24.2614 37.1273 23.9938C36.6655 23.7261 36.1173 23.6179 35.5141 23.6753C34.9108 23.7329 34.2642 23.9548 33.6113 24.3286C32.9584 24.7025 32.3118 25.2209 31.7087 25.8542C31.1054 26.4876 30.5574 27.2234 30.0957 28.0197C29.6341 28.8161 29.268 29.6574 29.0181 30.4956C28.7683 31.3337 28.6398 32.1524 28.6399 32.9048C28.64 33.6572 28.7687 34.3286 29.0187 34.8806C29.2686 35.4327 29.6349 35.8546 30.0966 36.1222Z" fill="white"/>
</svg>
