<svg width="40" height="46" viewBox="0 0 40 46" fill="none" xmlns="http://www.w3.org/2000/svg">
<path d="M17.3025 44.4776C12.2075 41.5493 7.11806 38.6132 2.03421 35.6694C1.16574 35.1661 0.57396 34.5031 0.258864 33.6803C0.0873976 33.2293 0.00166321 32.3926 0.00166321 31.1701C0.00166321 25.5273 0.00222155 19.885 0.00333496 14.2434C0.00500508 12.0989 0.507711 11.1386 2.28806 10.1098C7.30956 7.20714 12.3327 4.30725 17.3576 1.41014C18.2817 0.877931 18.9676 0.568958 19.4152 0.483225C20.2324 0.327347 21.009 0.461514 21.745 0.885725C27.203 4.04003 32.6626 7.19211 38.1239 10.342C38.9066 10.794 39.4477 11.4186 39.7472 12.2158C39.9143 12.6601 39.9983 13.4055 39.9994 14.4521C40.0017 20.4212 40.0022 26.3896 40.0011 32.3575C40.0011 34.1963 38.9773 35.0848 37.3707 36.0134C32.1977 39.0052 27.0231 41.9936 21.8469 44.9786C21.063 45.4318 20.2586 45.5843 19.4335 45.4363C18.9871 45.3572 18.2767 45.0377 17.3025 44.4776ZM19.8628 22.8679C14.9849 20.0676 10.0898 17.2418 5.17737 14.3903C4.86673 14.21 4.63292 14.1142 4.47592 14.1031C3.92645 14.0613 3.55736 14.4855 3.55736 15.03C3.5607 20.6806 3.57072 26.3312 3.58742 31.9817C3.58853 32.3013 3.7266 32.5407 4.00161 32.6999C8.75701 35.4489 13.5118 38.1979 18.2661 40.947C18.7722 41.2392 19.2515 41.5248 19.6841 41.1474C19.8967 40.9614 20.0031 40.7733 20.0031 40.5829C20.0019 34.7252 20.0058 28.8753 20.0147 23.0332C20.0147 22.9865 20.0353 22.9514 20.0765 22.928C25.1036 20.0265 30.1273 17.126 35.1477 14.2267C35.7022 13.9077 35.7657 13.081 35.1845 12.7453C30.5605 10.0775 25.9359 7.40978 21.3108 4.74204C20.6678 4.37127 19.9964 4.80383 19.998 5.5103C20.0014 11.1898 19.9992 16.9506 19.9914 22.7927C19.9914 22.8918 19.9485 22.9169 19.8628 22.8679ZM26.0261 35.4878C26.5464 35.7894 27.1641 35.9113 27.8438 35.8466C28.5235 35.7819 29.2521 35.5317 29.9878 35.1105C30.7235 34.6892 31.452 34.1052 32.1316 33.3916C32.8113 32.678 33.4288 31.8488 33.949 30.9515C34.4692 30.0542 34.8817 29.1063 35.1632 28.1618C35.4446 27.2174 35.5895 26.295 35.5894 25.4472C35.5893 24.5994 35.4443 23.8429 35.1626 23.2209C34.881 22.5989 34.4683 22.1235 33.948 21.8219C33.4277 21.5203 32.81 21.3984 32.1303 21.4631C31.4506 21.5279 30.722 21.778 29.9863 22.1992C29.2506 22.6205 28.5221 23.2046 27.8425 23.9182C27.1628 24.6318 26.5453 25.4609 26.0251 26.3582C25.5049 27.2555 25.0924 28.2035 24.8109 29.1479C24.5294 30.0923 24.3846 31.0148 24.3847 31.8625C24.3848 32.7103 24.5298 33.4668 24.8115 34.0888C25.0931 34.7109 25.5058 35.1862 26.0261 35.4878Z" fill="#AF2655"/>
</svg>
